<svg xmlns="http://www.w3.org/2000/svg" xmlns:xlink="http://www.w3.org/1999/xlink" version="1.1" width="256" height="256" viewBox="0 0 256 256" xml:space="preserve">
<g style="stroke: none; stroke-width: 0; stroke-dasharray: none; stroke-linecap: butt; stroke-linejoin: miter; stroke-miterlimit: 10; fill: none; fill-rule: nonzero; opacity: 1;" transform="translate(1.4065934065934016 1.4065934065934016) scale(2.81 2.81)">
	<path d="M 57.379 14.834 V 7.089 C 57.379 3.726 54.653 1 51.29 1 H 15.162 c -3.363 0 -6.089 2.726 -6.089 6.089 v 75.821 c 0 3.363 2.726 6.089 6.089 6.089 H 51.29 c 3.363 0 6.089 -2.726 6.089 -6.089 v -7.745" style="stroke: none; stroke-width: 1; stroke-dasharray: none; stroke-linecap: butt; stroke-linejoin: miter; stroke-miterlimit: 10; fill: rgb(72,149,255); fill-rule: nonzero; opacity: 1;" transform=" matrix(1 0 0 1 0 0) " stroke-linecap="round"/>
	<path d="M 76.212 22.545 h -35.48 c -2.604 0 -4.715 2.111 -4.715 4.715 v 8.842 L 24.165 45 l 11.851 8.898 v 8.842 c 0 2.604 2.111 4.715 4.715 4.715 h 35.48 c 2.604 0 4.715 -2.111 4.715 -4.715 V 27.26 C 80.927 24.656 78.816 22.545 76.212 22.545 z" style="stroke: none; stroke-width: 1; stroke-dasharray: none; stroke-linecap: butt; stroke-linejoin: miter; stroke-miterlimit: 10; fill: rgb(71,86,140); fill-rule: nonzero; opacity: 1;" transform=" matrix(1 0 0 1 0 0) " stroke-linecap="round"/>
	<path d="M 53.146 55.251 c 0 0.012 -0.002 0.024 -0.002 0.036 c 0 3.088 2.503 5.59 5.59 5.59 c 3.087 0 5.59 -2.503 5.59 -5.59 c 0 -0.012 -0.002 -0.024 -0.002 -0.036" style="stroke: none; stroke-width: 1; stroke-dasharray: none; stroke-linecap: butt; stroke-linejoin: miter; stroke-miterlimit: 10; fill: rgb(255,222,70); fill-rule: nonzero; opacity: 1;" transform=" matrix(1 0 0 1 0 0) " stroke-linecap="round"/>
	<path d="M 68.677 48.618 v -8.331 c 0 -5.491 -4.451 -9.942 -9.942 -9.942 h 0 c -5.491 0 -9.942 4.451 -9.942 9.942 v 8.331 c 0 1.055 -0.462 2.057 -1.264 2.743 l 0 0 c -0.802 0.685 -1.264 1.688 -1.264 2.743 v 0 c 0 0.634 0.514 1.148 1.148 1.148 h 22.647 c 0.634 0 1.148 -0.514 1.148 -1.148 v 0 c 0 -1.055 -0.462 -2.057 -1.264 -2.743 l 0 0 C 69.139 50.676 68.677 49.674 68.677 48.618 z" style="stroke: none; stroke-width: 1; stroke-dasharray: none; stroke-linecap: butt; stroke-linejoin: miter; stroke-miterlimit: 10; fill: rgb(255,222,70); fill-rule: nonzero; opacity: 1;" transform=" matrix(1 0 0 1 0 0) " stroke-linecap="round"/>
	<path d="M 70.059 56.251 H 47.411 c -1.185 0 -2.147 -0.963 -2.147 -2.147 c 0 -1.351 0.589 -2.627 1.616 -3.503 c 0.58 -0.496 0.913 -1.219 0.913 -1.982 v -8.331 c 0 -6.034 4.908 -10.942 10.941 -10.942 s 10.942 4.909 10.942 10.942 v 8.331 c 0 0.764 0.333 1.486 0.914 1.982 c 1.026 0.876 1.615 2.152 1.615 3.503 C 72.206 55.288 71.243 56.251 70.059 56.251 z M 58.734 31.345 c -4.931 0 -8.941 4.012 -8.941 8.942 v 8.331 c 0 1.35 -0.589 2.627 -1.615 3.504 c -0.581 0.495 -0.914 1.218 -0.914 1.981 c 0 0.081 0.066 0.147 0.147 0.147 h 22.647 c 0.081 0 0.147 -0.066 0.147 -0.147 c 0 -0.764 -0.333 -1.486 -0.913 -1.981 c -1.027 -0.877 -1.616 -2.154 -1.616 -3.504 v -8.331 C 67.677 35.356 63.665 31.345 58.734 31.345 z" style="stroke: none; stroke-width: 1; stroke-dasharray: none; stroke-linecap: butt; stroke-linejoin: miter; stroke-miterlimit: 10; fill: rgb(0,0,0); fill-rule: nonzero; opacity: 1;" transform=" matrix(1 0 0 1 0 0) " stroke-linecap="round"/>
	<path d="M 58.734 61.878 c -3.634 0 -6.59 -2.957 -6.59 -6.591 c 0 -0.553 0.448 -1.018 1.001 -1.018 s 1.001 0.429 1.001 0.981 c 0 0.027 -0.002 0.073 -0.004 0.101 c 0.002 2.467 2.061 4.526 4.592 4.526 s 4.591 -2.06 4.591 -4.591 c 0 -0.553 0.446 -1.018 0.999 -1.018 s 0.999 0.429 0.999 0.981 C 65.325 58.921 62.368 61.878 58.734 61.878 z" style="stroke: none; stroke-width: 1; stroke-dasharray: none; stroke-linecap: butt; stroke-linejoin: miter; stroke-miterlimit: 10; fill: rgb(0,0,0); fill-rule: nonzero; opacity: 1;" transform=" matrix(1 0 0 1 0 0) " stroke-linecap="round"/>
	<path d="M 34.896 8.131 h -3.341 c -0.552 0 -1 -0.448 -1 -1 s 0.448 -1 1 -1 h 3.341 c 0.552 0 1 0.448 1 1 S 35.449 8.131 34.896 8.131 z" style="stroke: none; stroke-width: 1; stroke-dasharray: none; stroke-linecap: butt; stroke-linejoin: miter; stroke-miterlimit: 10; fill: rgb(0,0,0); fill-rule: nonzero; opacity: 1;" transform=" matrix(1 0 0 1 0 0) " stroke-linecap="round"/>
	<path d="M 34.896 83.869 h -3.341 c -0.552 0 -1 -0.447 -1 -1 s 0.448 -1 1 -1 h 3.341 c 0.552 0 1 0.447 1 1 S 35.449 83.869 34.896 83.869 z" style="stroke: none; stroke-width: 1; stroke-dasharray: none; stroke-linecap: butt; stroke-linejoin: miter; stroke-miterlimit: 10; fill: rgb(0,0,0); fill-rule: nonzero; opacity: 1;" transform=" matrix(1 0 0 1 0 0) " stroke-linecap="round"/>
	<path d="M 46.919 83.869 h -3.342 c -0.552 0 -1 -0.447 -1 -1 s 0.448 -1 1 -1 h 3.342 c 0.553 0 1 0.447 1 1 S 47.472 83.869 46.919 83.869 z" style="stroke: none; stroke-width: 1; stroke-dasharray: none; stroke-linecap: butt; stroke-linejoin: miter; stroke-miterlimit: 10; fill: rgb(0,0,0); fill-rule: nonzero; opacity: 1;" transform=" matrix(1 0 0 1 0 0) " stroke-linecap="round"/>
	<path d="M 22.875 83.869 h -3.342 c -0.552 0 -1 -0.447 -1 -1 s 0.448 -1 1 -1 h 3.342 c 0.552 0 1 0.447 1 1 S 23.427 83.869 22.875 83.869 z" style="stroke: none; stroke-width: 1; stroke-dasharray: none; stroke-linecap: butt; stroke-linejoin: miter; stroke-miterlimit: 10; fill: rgb(0,0,0); fill-rule: nonzero; opacity: 1;" transform=" matrix(1 0 0 1 0 0) " stroke-linecap="round"/>
	<path d="M 76.212 68.455 h -35.48 c -3.151 0 -5.715 -2.563 -5.715 -5.715 v -8.343 L 23.565 45.8 c -0.251 -0.189 -0.399 -0.485 -0.399 -0.8 s 0.148 -0.611 0.399 -0.8 l 11.452 -8.597 V 27.26 c 0 -3.151 2.564 -5.715 5.715 -5.715 h 35.48 c 3.151 0 5.716 2.563 5.716 5.715 v 35.48 C 81.928 65.892 79.363 68.455 76.212 68.455 z M 25.831 45 l 10.786 8.098 c 0.251 0.189 0.399 0.485 0.399 0.8 v 8.843 c 0 2.049 1.667 3.715 3.715 3.715 h 35.48 c 2.049 0 3.716 -1.666 3.716 -3.715 V 27.26 c 0 -2.048 -1.667 -3.715 -3.716 -3.715 h -35.48 c -2.049 0 -3.715 1.667 -3.715 3.715 v 8.843 c 0 0.314 -0.148 0.611 -0.399 0.8 L 25.831 45 z" style="stroke: none; stroke-width: 1; stroke-dasharray: none; stroke-linecap: butt; stroke-linejoin: miter; stroke-miterlimit: 10; fill: rgb(0,0,0); fill-rule: nonzero; opacity: 1;" transform=" matrix(1 0 0 1 0 0) " stroke-linecap="round"/>
	<path d="M 51.29 90 H 15.162 c -3.909 0 -7.089 -3.18 -7.089 -7.089 V 7.089 C 8.073 3.18 11.253 0 15.162 0 H 51.29 c 3.909 0 7.089 3.18 7.089 7.089 v 7.745 c 0 0.552 -0.447 1 -1 1 s -1 -0.448 -1 -1 V 7.089 C 56.379 4.283 54.096 2 51.29 2 H 15.162 c -2.806 0 -5.089 2.283 -5.089 5.089 v 75.822 c 0 2.806 2.283 5.089 5.089 5.089 H 51.29 c 2.806 0 5.089 -2.283 5.089 -5.089 v -7.745 c 0 -0.553 0.447 -1 1 -1 s 1 0.447 1 1 v 7.745 C 58.379 86.82 55.199 90 51.29 90 z" style="stroke: none; stroke-width: 1; stroke-dasharray: none; stroke-linecap: butt; stroke-linejoin: miter; stroke-miterlimit: 10; fill: rgb(0,0,0); fill-rule: nonzero; opacity: 1;" transform=" matrix(1 0 0 1 0 0) " stroke-linecap="round"/>
</g>
</svg>